<svg id="Layer_1" data-name="Layer 1" xmlns="http://www.w3.org/2000/svg" viewBox="0 0 453 433"><defs><style>.cls-1,.cls-2{fill:none;stroke-miterlimit:10;}.cls-1{stroke:#009245;stroke-width:8px;}.cls-2{stroke:#542a12;stroke-width:14px;}</style></defs><title>Artboard 22</title><line class="cls-1" x1="123.01" y1="132.09" x2="219.96" y2="154.65"/><line class="cls-1" x1="179.85" y1="117.04" x2="219.96" y2="154.65"/><line class="cls-1" x1="123.01" y1="132.09" x2="179.85" y2="117.04"/><line class="cls-1" x1="219.96" y1="154.65" x2="205.75" y2="220.68"/><line class="cls-1" x1="197.4" y1="260.8" x2="205.75" y2="220.68"/><line class="cls-1" x1="181.52" y1="316.79" x2="197.4" y2="260.8"/><line class="cls-1" x1="219.96" y1="352.73" x2="128.86" y2="264.98"/><line class="cls-1" x1="102.12" y1="220.68" x2="128.86" y2="264.98"/><line class="cls-1" x1="98.77" y1="177.22" x2="102.12" y2="220.68"/><line class="cls-1" x1="123.01" y1="132.09" x2="98.77" y2="177.22"/><line class="cls-1" x1="219.96" y1="154.65" x2="158.95" y2="158"/><line class="cls-1" x1="98.77" y1="177.22" x2="158.95" y2="158"/><line class="cls-1" x1="179.01" y1="177.22" x2="219.96" y2="154.65"/><line class="cls-1" x1="158.95" y1="158" x2="123.01" y2="132.09"/><line class="cls-1" x1="179.01" y1="177.22" x2="98.77" y2="177.22"/><line class="cls-1" x1="219.96" y1="352.73" x2="179.01" y2="177.22"/><line class="cls-1" x1="128.86" y1="264.98" x2="197.4" y2="260.8"/><line class="cls-1" x1="122.18" y1="227.37" x2="197.4" y2="260.8"/><line class="cls-1" x1="128.86" y1="264.98" x2="122.18" y2="227.37"/><line class="cls-1" x1="98.77" y1="177.22" x2="122.18" y2="227.37"/><line class="cls-1" x1="147.25" y1="177.22" x2="122.18" y2="227.37"/><line class="cls-1" x1="102.12" y1="220.68" x2="122.18" y2="227.37"/><line class="cls-1" x1="191.55" y1="231.54" x2="122.18" y2="227.37"/><line class="cls-1" x1="147.25" y1="177.22" x2="191.55" y2="231.54"/><line class="cls-1" x1="205.75" y1="220.68" x2="179.01" y2="177.22"/><line class="cls-1" x1="231.66" y1="289.21" x2="219.96" y2="352.73"/><line class="cls-1" x1="197.4" y1="260.8" x2="231.66" y2="289.21"/><line class="cls-1" x1="205.75" y1="220.68" x2="231.66" y2="289.21"/><line class="cls-1" x1="260.92" y1="204.8" x2="205.75" y2="220.68"/><line class="cls-1" x1="219.96" y1="154.65" x2="260.92" y2="204.8"/><line class="cls-1" x1="310.23" y1="264.98" x2="260.92" y2="204.8"/><line class="cls-1" x1="205.75" y1="220.68" x2="310.23" y2="264.98"/><line class="cls-1" x1="231.66" y1="289.21" x2="280.14" y2="252.44"/><line class="cls-1" x1="260.92" y1="204.8" x2="280.14" y2="252.44"/><line class="cls-1" x1="219.96" y1="352.73" x2="280.14" y2="252.44"/><line class="cls-1" x1="310.23" y1="264.98" x2="219.96" y2="352.73"/><line class="cls-1" x1="336.97" y1="220.68" x2="310.23" y2="264.98"/><line class="cls-1" x1="260.92" y1="204.8" x2="336.97" y2="220.68"/><line class="cls-1" x1="260.08" y1="117.04" x2="260.92" y2="204.8"/><line class="cls-1" x1="219.96" y1="154.65" x2="260.08" y2="117.04"/><line class="cls-1" x1="316.91" y1="132.92" x2="260.08" y2="117.04"/><line class="cls-1" x1="341.99" y1="177.22" x2="316.91" y2="132.92"/><line class="cls-1" x1="336.97" y1="220.68" x2="341.99" y2="177.22"/><line class="cls-1" x1="260.08" y1="117.04" x2="299.36" y2="170.53"/><line class="cls-1" x1="316.91" y1="132.92" x2="299.36" y2="170.53"/><line class="cls-1" x1="321.09" y1="188.08" x2="299.36" y2="170.53"/><line class="cls-1" x1="316.91" y1="132.92" x2="321.09" y2="188.08"/><line class="cls-1" x1="336.97" y1="220.68" x2="321.09" y2="188.08"/><line class="cls-1" x1="260.92" y1="204.8" x2="321.09" y2="188.08"/><line class="cls-1" x1="299.36" y1="170.53" x2="260.92" y2="204.8"/><line class="cls-1" x1="260.92" y1="171.37" x2="299.36" y2="170.53"/><line class="cls-1" x1="219.96" y1="154.65" x2="260.92" y2="171.37"/><circle class="cls-2" cx="219.83" cy="216.89" r="167.43"/><line class="cls-1" x1="122.18" y1="132.14" x2="219.13" y2="154.71"/><line class="cls-1" x1="178.29" y1="116.16" x2="218.13" y2="153.71"/><line class="cls-1" x1="122.29" y1="132.16" x2="182.01" y2="117.1"/><line class="cls-1" x1="219.13" y1="154.71" x2="204.92" y2="220.73"/><line class="cls-1" x1="196.56" y1="260.85" x2="204.92" y2="220.73"/><line class="cls-1" x1="180.68" y1="316.85" x2="196.56" y2="260.85"/><line class="cls-1" x1="219.13" y1="352.79" x2="128.03" y2="265.03"/><line class="cls-1" x1="102.28" y1="219.73" x2="132.29" y2="270.16"/><line class="cls-1" x1="98.94" y1="178.27" x2="102.28" y2="221.73"/><line class="cls-1" x1="124.29" y1="131.16" x2="97.94" y2="180.27"/><line class="cls-1" x1="219.13" y1="154.71" x2="158.12" y2="158.05"/><line class="cls-1" x1="97.94" y1="177.27" x2="158.12" y2="158.05"/><line class="cls-1" x1="178.18" y1="177.27" x2="219.13" y2="154.71"/><line class="cls-1" x1="158.12" y1="158.05" x2="122.29" y2="132.16"/><line class="cls-1" x1="178.18" y1="177.27" x2="97.94" y2="177.27"/><line class="cls-1" x1="219.13" y1="352.79" x2="178.18" y2="177.27"/><line class="cls-1" x1="129.03" y1="265.03" x2="197.56" y2="260.85"/><line class="cls-1" x1="121.34" y1="227.42" x2="196.56" y2="260.85"/><line class="cls-1" x1="128.03" y1="264.03" x2="121.34" y2="226.42"/><line class="cls-1" x1="97.94" y1="177.27" x2="121.34" y2="227.42"/><line class="cls-1" x1="146.42" y1="177.27" x2="121.34" y2="227.42"/><line class="cls-1" x1="101.28" y1="220.73" x2="121.34" y2="227.42"/><line class="cls-1" x1="190.71" y1="231.6" x2="121.34" y2="227.42"/><line class="cls-1" x1="146.42" y1="177.27" x2="190.71" y2="231.6"/><line class="cls-1" x1="204.92" y1="220.73" x2="178.18" y2="177.27"/><line class="cls-1" x1="230.83" y1="289.27" x2="219.13" y2="352.79"/><line class="cls-1" x1="196.56" y1="260.85" x2="230.83" y2="289.27"/><line class="cls-1" x1="204.92" y1="220.73" x2="230.83" y2="289.27"/><line class="cls-1" x1="260.08" y1="204.85" x2="204.92" y2="220.73"/><line class="cls-1" x1="219.13" y1="154.71" x2="260.08" y2="204.85"/><line class="cls-1" x1="309.39" y1="265.03" x2="260.08" y2="204.85"/><line class="cls-1" x1="204.92" y1="220.73" x2="309.39" y2="265.03"/><line class="cls-1" x1="230.83" y1="289.27" x2="279.3" y2="252.49"/><line class="cls-1" x1="260.08" y1="204.85" x2="279.3" y2="252.49"/><line class="cls-1" x1="219.13" y1="352.79" x2="279.3" y2="252.49"/><line class="cls-1" x1="311.39" y1="262.03" x2="216.29" y2="355.16"/><line class="cls-1" x1="337.29" y1="216.16" x2="309.29" y2="265.16"/><line class="cls-1" x1="260.08" y1="204.85" x2="336.14" y2="220.73"/><line class="cls-1" x1="259.25" y1="117.1" x2="260.08" y2="204.85"/><line class="cls-1" x1="217.13" y1="153.71" x2="262.29" y2="117.16"/><line class="cls-1" x1="316.08" y1="132.98" x2="259.25" y2="117.1"/><line class="cls-1" x1="341.15" y1="179.27" x2="313.29" y2="131.16"/><line class="cls-1" x1="336.14" y1="220.73" x2="341.15" y2="177.27"/><line class="cls-1" x1="259.25" y1="117.1" x2="298.53" y2="170.59"/><line class="cls-1" x1="316.08" y1="132.98" x2="298.53" y2="170.59"/><line class="cls-1" x1="320.26" y1="188.14" x2="298.53" y2="170.59"/><line class="cls-1" x1="316.29" y1="137.16" x2="320.26" y2="188.14"/><line class="cls-1" x1="336.14" y1="220.73" x2="320.26" y2="188.14"/><line class="cls-1" x1="260.08" y1="204.85" x2="320.26" y2="188.14"/><line class="cls-1" x1="298.53" y1="170.59" x2="260.08" y2="204.85"/><line class="cls-1" x1="260.08" y1="171.42" x2="298.53" y2="170.59"/><line class="cls-1" x1="219.13" y1="154.71" x2="260.08" y2="171.42"/></svg>