<svg id="Layer_1" data-name="Layer 1" xmlns="http://www.w3.org/2000/svg" viewBox="0 0 1537 416"><defs><style>.cls-1{font-size:180.39px;fill:#42210b;font-family:Arial-BoldMT, Arial;font-weight:700;}.cls-2{font-family:ArialMT, Arial;font-weight:400;}.cls-3,.cls-4{fill:none;stroke-miterlimit:10;}.cls-3{stroke:#009245;stroke-width:8px;}.cls-4{stroke:#542a12;stroke-width:14px;}</style></defs><title>Artboard 15</title><text class="cls-1" transform="translate(77.06 268.66)">NEXT<tspan class="cls-2" x="481.1" y="0">HAND</tspan></text><line class="cls-3" x1="1197.27" y1="126.22" x2="1294.22" y2="148.79"/><line class="cls-3" x1="1254.1" y1="111.18" x2="1294.22" y2="148.79"/><line class="cls-3" x1="1197.27" y1="126.22" x2="1254.1" y2="111.18"/><line class="cls-3" x1="1294.22" y1="148.79" x2="1280.01" y2="214.82"/><line class="cls-3" x1="1271.65" y1="254.93" x2="1280.01" y2="214.82"/><line class="cls-3" x1="1255.77" y1="310.93" x2="1271.65" y2="254.93"/><line class="cls-3" x1="1294.22" y1="346.87" x2="1203.12" y2="259.11"/><line class="cls-3" x1="1176.38" y1="214.82" x2="1203.12" y2="259.11"/><line class="cls-3" x1="1173.03" y1="171.36" x2="1176.38" y2="214.82"/><line class="cls-3" x1="1197.27" y1="126.22" x2="1173.03" y2="171.36"/><line class="cls-3" x1="1294.22" y1="148.79" x2="1233.21" y2="152.13"/><line class="cls-3" x1="1173.03" y1="171.36" x2="1233.21" y2="152.13"/><line class="cls-3" x1="1253.27" y1="171.36" x2="1294.22" y2="148.79"/><line class="cls-3" x1="1233.21" y1="152.13" x2="1197.27" y2="126.22"/><line class="cls-3" x1="1253.27" y1="171.36" x2="1173.03" y2="171.36"/><line class="cls-3" x1="1294.22" y1="346.87" x2="1253.27" y2="171.36"/><line class="cls-3" x1="1203.12" y1="259.11" x2="1271.65" y2="254.93"/><line class="cls-3" x1="1196.43" y1="221.5" x2="1271.65" y2="254.93"/><line class="cls-3" x1="1203.12" y1="259.11" x2="1196.43" y2="221.5"/><line class="cls-3" x1="1173.03" y1="171.36" x2="1196.43" y2="221.5"/><line class="cls-3" x1="1221.51" y1="171.36" x2="1196.43" y2="221.5"/><line class="cls-3" x1="1176.38" y1="214.82" x2="1196.43" y2="221.5"/><line class="cls-3" x1="1265.8" y1="225.68" x2="1196.43" y2="221.5"/><line class="cls-3" x1="1221.51" y1="171.36" x2="1265.8" y2="225.68"/><line class="cls-3" x1="1280.01" y1="214.82" x2="1253.27" y2="171.36"/><line class="cls-3" x1="1305.92" y1="283.35" x2="1294.22" y2="346.87"/><line class="cls-3" x1="1271.65" y1="254.93" x2="1305.92" y2="283.35"/><line class="cls-3" x1="1280.01" y1="214.82" x2="1305.92" y2="283.35"/><line class="cls-3" x1="1335.17" y1="198.94" x2="1280.01" y2="214.82"/><line class="cls-3" x1="1294.22" y1="148.79" x2="1335.17" y2="198.94"/><line class="cls-3" x1="1384.48" y1="259.11" x2="1335.17" y2="198.94"/><line class="cls-3" x1="1280.01" y1="214.82" x2="1384.48" y2="259.11"/><line class="cls-3" x1="1305.92" y1="283.35" x2="1354.4" y2="246.57"/><line class="cls-3" x1="1335.17" y1="198.94" x2="1354.4" y2="246.57"/><line class="cls-3" x1="1294.22" y1="346.87" x2="1354.4" y2="246.57"/><line class="cls-3" x1="1384.48" y1="259.11" x2="1294.22" y2="346.87"/><line class="cls-3" x1="1411.23" y1="214.82" x2="1384.48" y2="259.11"/><line class="cls-3" x1="1335.17" y1="198.94" x2="1411.23" y2="214.82"/><line class="cls-3" x1="1334.34" y1="111.18" x2="1335.17" y2="198.94"/><line class="cls-3" x1="1294.22" y1="148.79" x2="1334.34" y2="111.18"/><line class="cls-3" x1="1391.17" y1="127.06" x2="1334.34" y2="111.18"/><line class="cls-3" x1="1416.24" y1="171.36" x2="1391.17" y2="127.06"/><line class="cls-3" x1="1411.23" y1="214.82" x2="1416.24" y2="171.36"/><line class="cls-3" x1="1334.34" y1="111.18" x2="1373.62" y2="164.67"/><line class="cls-3" x1="1391.17" y1="127.06" x2="1373.62" y2="164.67"/><line class="cls-3" x1="1395.35" y1="182.22" x2="1373.62" y2="164.67"/><line class="cls-3" x1="1391.17" y1="127.06" x2="1395.35" y2="182.22"/><line class="cls-3" x1="1411.23" y1="214.82" x2="1395.35" y2="182.22"/><line class="cls-3" x1="1335.17" y1="198.94" x2="1395.35" y2="182.22"/><line class="cls-3" x1="1373.62" y1="164.67" x2="1335.17" y2="198.94"/><line class="cls-3" x1="1335.17" y1="165.5" x2="1373.62" y2="164.67"/><line class="cls-3" x1="1294.22" y1="148.79" x2="1335.17" y2="165.5"/><circle class="cls-4" cx="1294.09" cy="211.03" r="167.43"/><line class="cls-3" x1="1196.44" y1="126.28" x2="1293.39" y2="148.84"/><line class="cls-3" x1="1252.55" y1="110.3" x2="1292.39" y2="147.84"/><line class="cls-3" x1="1196.55" y1="126.3" x2="1256.27" y2="111.23"/><line class="cls-3" x1="1293.39" y1="148.84" x2="1279.18" y2="214.87"/><line class="cls-3" x1="1270.82" y1="254.99" x2="1279.18" y2="214.87"/><line class="cls-3" x1="1254.94" y1="310.98" x2="1270.82" y2="254.99"/><line class="cls-3" x1="1293.39" y1="346.92" x2="1202.29" y2="259.17"/><line class="cls-3" x1="1176.54" y1="213.87" x2="1206.55" y2="264.3"/><line class="cls-3" x1="1173.2" y1="172.41" x2="1176.54" y2="215.87"/><line class="cls-3" x1="1198.55" y1="125.3" x2="1172.2" y2="174.41"/><line class="cls-3" x1="1293.39" y1="148.84" x2="1232.37" y2="152.19"/><line class="cls-3" x1="1172.2" y1="171.41" x2="1232.37" y2="152.19"/><line class="cls-3" x1="1252.43" y1="171.41" x2="1293.39" y2="148.84"/><line class="cls-3" x1="1232.37" y1="152.19" x2="1196.55" y2="126.3"/><line class="cls-3" x1="1252.43" y1="171.41" x2="1172.2" y2="171.41"/><line class="cls-3" x1="1293.39" y1="346.92" x2="1252.43" y2="171.41"/><line class="cls-3" x1="1203.29" y1="259.17" x2="1271.82" y2="254.99"/><line class="cls-3" x1="1195.6" y1="221.56" x2="1270.82" y2="254.99"/><line class="cls-3" x1="1202.29" y1="258.17" x2="1195.6" y2="220.56"/><line class="cls-3" x1="1172.2" y1="171.41" x2="1195.6" y2="221.56"/><line class="cls-3" x1="1220.67" y1="171.41" x2="1195.6" y2="221.56"/><line class="cls-3" x1="1175.54" y1="214.87" x2="1195.6" y2="221.56"/><line class="cls-3" x1="1264.97" y1="225.73" x2="1195.6" y2="221.56"/><line class="cls-3" x1="1220.67" y1="171.41" x2="1264.97" y2="225.73"/><line class="cls-3" x1="1279.18" y1="214.87" x2="1252.43" y2="171.41"/><line class="cls-3" x1="1305.09" y1="283.4" x2="1293.39" y2="346.92"/><line class="cls-3" x1="1270.82" y1="254.99" x2="1305.09" y2="283.4"/><line class="cls-3" x1="1279.18" y1="214.87" x2="1305.09" y2="283.4"/><line class="cls-3" x1="1334.34" y1="198.99" x2="1279.18" y2="214.87"/><line class="cls-3" x1="1293.39" y1="148.84" x2="1334.34" y2="198.99"/><line class="cls-3" x1="1383.65" y1="259.17" x2="1334.34" y2="198.99"/><line class="cls-3" x1="1279.18" y1="214.87" x2="1383.65" y2="259.17"/><line class="cls-3" x1="1305.09" y1="283.4" x2="1353.56" y2="246.63"/><line class="cls-3" x1="1334.34" y1="198.99" x2="1353.56" y2="246.63"/><line class="cls-3" x1="1293.39" y1="346.92" x2="1353.56" y2="246.63"/><line class="cls-3" x1="1385.65" y1="256.17" x2="1290.55" y2="349.3"/><line class="cls-3" x1="1411.55" y1="210.3" x2="1383.55" y2="259.3"/><line class="cls-3" x1="1334.34" y1="198.99" x2="1410.4" y2="214.87"/><line class="cls-3" x1="1333.5" y1="111.23" x2="1334.34" y2="198.99"/><line class="cls-3" x1="1291.39" y1="147.84" x2="1336.55" y2="111.3"/><line class="cls-3" x1="1390.34" y1="127.11" x2="1333.5" y2="111.23"/><line class="cls-3" x1="1415.41" y1="173.41" x2="1387.55" y2="125.3"/><line class="cls-3" x1="1410.4" y1="214.87" x2="1415.41" y2="171.41"/><line class="cls-3" x1="1333.5" y1="111.23" x2="1372.79" y2="164.72"/><line class="cls-3" x1="1390.34" y1="127.11" x2="1372.79" y2="164.72"/><line class="cls-3" x1="1394.52" y1="182.27" x2="1372.79" y2="164.72"/><line class="cls-3" x1="1390.55" y1="131.3" x2="1394.52" y2="182.27"/><line class="cls-3" x1="1410.4" y1="214.87" x2="1394.52" y2="182.27"/><line class="cls-3" x1="1334.34" y1="198.99" x2="1394.52" y2="182.27"/><line class="cls-3" x1="1372.79" y1="164.72" x2="1334.34" y2="198.99"/><line class="cls-3" x1="1334.34" y1="165.56" x2="1372.79" y2="164.72"/><line class="cls-3" x1="1293.39" y1="148.84" x2="1334.34" y2="165.56"/></svg>
