<svg id="Layer_1" data-name="Layer 1" xmlns="http://www.w3.org/2000/svg" viewBox="0 0 370 368"><defs><style>.cls-1{fill:#26672b;}.cls-2{fill:#42210b;}</style></defs><title>Artboard 19</title><path class="cls-1" d="M279.83,217.6l.4.42-90.18,94-73.91-77c-22.53-18.29-39.64-45.83-39.64-70,0-40.61,28.45-73.53,63.55-73.53,20.06,0,37.94,10.75,49.58,27.54C201.14,100.22,220.07,88,241.45,88c35.1,0,63.55,32.92,63.55,73.53C305,186.38,295.9,201.79,279.83,217.6Z"/><path class="cls-2" d="M188.19,34.8A147.42,147.42,0,0,1,292.44,286.47,147.42,147.42,0,1,1,84,78,146.47,146.47,0,0,1,188.19,34.8m0-20A167.43,167.43,0,1,0,355.62,182.23,167.43,167.43,0,0,0,188.19,14.8Z"/></svg>
